<svg width="44" height="44" viewBox="0 0 44 44" fill="none" xmlns="http://www.w3.org/2000/svg">
<path d="M31.206 22.0198C29.0225 14.839 22.5963 7.17529 22.2696 6.78809C22.2186 6.73223 22.1565 6.68761 22.0873 6.65709C22.018 6.62656 21.9432 6.61079 21.8676 6.61079C21.7919 6.61079 21.7171 6.62656 21.6479 6.65709C21.5786 6.68761 21.5165 6.73223 21.4655 6.78809C21.1388 7.17529 14.7115 14.8379 12.5269 22.0198C12.0792 23.4927 11.7954 24.948 11.7954 26.3131C11.7954 31.8659 16.3142 36.3836 21.867 36.3836C27.4198 36.3836 31.9364 31.8659 31.9364 26.3131C31.9375 24.948 31.6537 23.4938 31.206 22.0198V22.0198ZM21.8681 35.332C16.895 35.332 12.8492 31.2862 12.8492 26.3142C12.8492 24.9645 13.1495 23.5059 13.6291 22.0209C15.5398 16.1084 20.4304 9.74929 21.8681 7.96179C23.3058 9.74929 28.1964 16.1084 30.1049 22.0209C30.5845 23.507 30.8848 24.9645 30.8848 26.3142C30.8848 31.2862 26.8401 35.332 21.8681 35.332Z" fill="white"/>
<path d="M16.2231 22.0198C15.6731 23.4168 15.3057 24.816 15.3057 26.0898C15.3057 27.8302 15.997 29.4992 17.2276 30.7299C18.4583 31.9605 20.1274 32.6518 21.8677 32.6518C23.6081 32.6518 25.2772 31.9605 26.5078 30.7299C27.7384 29.4992 28.4298 27.8302 28.4298 26.0898C28.4298 24.816 28.0624 23.4168 27.5124 22.0198H16.2231Z" fill="white"/>
</svg>
