<svg width="217" height="88" viewBox="0 0 217 88" fill="none" xmlns="http://www.w3.org/2000/svg">
<path d="M78.1189 65.3375C78.0649 65.2833 78.005 65.2353 77.9404 65.1944C76.0551 63.6763 59.7625 50.5174 51.2706 42.8168C51.5466 42.0065 51.4491 41.6722 51.4491 41.6722L43.3788 33.6006C43.3788 33.6006 43.4902 33.8843 43.2787 34.5971C35.4882 25.7684 24.2057 11.7978 22.8079 10.0607C22.8218 10.081 22.8269 10.1088 22.837 10.1304C22.7839 10.0405 22.7319 9.95056 22.6598 9.88092C21.1366 8.35777 15.4808 11.5434 10.0263 16.9979C4.57308 22.4511 1.38875 28.1069 2.91191 29.6313C2.98916 29.7006 3.07463 29.7601 3.1664 29.8086C3.14235 29.7947 3.11323 29.7896 3.08917 29.7757C4.82757 31.1773 18.8031 42.4636 27.6293 50.2528C26.9114 50.4655 26.6304 50.3452 26.6304 50.3452L34.7007 58.4181C34.7007 58.4181 35.0274 58.5346 35.8541 58.2497C43.5573 66.7416 56.7048 83.0229 58.2242 84.9107C58.2672 84.9727 58.3153 85.0322 58.3698 85.0892C58.6268 85.3462 59.0028 85.4703 59.4764 85.4703C61.801 85.4703 66.4717 82.505 71.0032 77.9748C76.4577 72.519 79.642 66.8619 78.1189 65.3375ZM11.9002 16.9232C13.9918 14.8328 16.1291 13.5818 16.676 14.1288C16.766 14.2293 16.8128 14.3612 16.8064 14.496C16.1898 14.2896 14.6287 15.2139 13.1271 16.7168C11.4811 18.3627 10.5277 20.0784 10.9962 20.5443C11.1949 20.7456 11.6216 20.6848 12.1749 20.424C10.7315 21.5483 9.50466 22.0928 9.10709 21.6965C8.56013 21.152 9.81233 19.0148 11.9002 16.9232ZM5.49102 27.0522C5.03395 26.5951 5.17575 25.6151 5.78223 24.3237C5.78404 24.5098 5.85436 24.6888 5.97975 24.8263C6.83692 25.6835 10.1909 23.7197 13.4727 20.443C16.7533 17.1624 18.7145 13.8072 17.8561 12.95C17.5319 12.6259 16.8508 12.7044 15.9505 13.1058C18.5056 11.2901 20.5947 10.4861 21.3265 11.2167C22.4699 12.3613 19.8528 16.8345 15.4808 21.2065C11.1076 25.5797 6.63307 28.1968 5.49102 27.0522ZM19.3159 24.0312L18.8145 24.5389C18.2207 25.1302 17.6256 25.7 17.0242 26.2469L35.3654 44.5856C34.6057 45.3149 33.9144 45.9467 33.2738 46.5038L13.7551 28.9805C12.8561 29.6668 11.961 30.2973 11.0848 30.8633L30.7617 48.5271C30.4528 48.7499 30.1806 48.9259 29.9122 49.1006C23.4878 43.3853 13.9779 35.5631 8.41452 31.0317C11.3925 29.4667 14.6464 26.7711 17.2255 24.1907C18.3182 23.0968 22.0356 19.2389 24.0588 15.3772C28.4511 20.7735 36.353 30.3834 42.1278 36.8749C42.0113 37.0547 41.9126 37.2192 41.7758 37.418L24.3399 17.9981C23.7193 18.8845 23.0668 19.7481 22.3838 20.5873L39.7791 39.9642C39.0809 40.7739 38.3602 41.5638 37.6179 42.3332L19.3159 24.0312ZM69.3256 76.2934C65.0258 80.5931 61.292 82.7633 59.784 83.0583C57.6835 80.4526 45.6008 65.5186 38.0369 57.1228C39.5487 56.1441 41.6682 54.4551 44.5765 51.5468C45.7019 50.4288 46.7831 49.2673 47.8178 48.0649L72.1579 71.7429L74.2293 69.3094L49.7892 45.539C49.9259 45.3415 50.0272 45.1744 50.1412 44.9946C58.4128 52.4458 73.0265 64.2778 76.0943 66.7543C75.8171 68.1103 73.771 71.848 69.3256 76.2934Z" fill="url(#paint0_linear)"/>
<path d="M41.0581 59.307C48.0953 67.3583 57.3152 78.7117 60.0716 82.1227C60.6325 81.9176 61.5479 81.4896 62.8115 80.6616C64.7057 79.422 66.7606 77.714 68.7535 75.7198L46.8734 53.8386C44.9923 55.7214 43.0529 57.5451 41.0581 59.307Z" fill="url(#paint1_linear)"/>
<path d="M94.122 43.5972C93.1292 45.2518 91.9422 46.0791 90.561 46.0791C89.9135 46.0791 89.3956 45.9712 89.0071 45.7554C88.633 45.5395 88.4172 45.3237 88.3597 45.1079L88.2733 44.7842C89.2661 43.8202 89.9495 42.7843 90.3236 41.6764C90.6977 40.5541 90.8847 39.1298 90.8847 37.4032C90.8847 35.6623 90.8056 34.2738 90.6473 33.2379C90.4891 32.202 90.2948 31.4322 90.0646 30.9287C89.8344 30.4251 89.597 30.0294 89.3524 29.7417C89.1222 29.4395 88.928 29.2165 88.7697 29.0726C88.6114 28.9288 88.5323 28.7921 88.5323 28.6626C88.5323 28.5187 88.6114 28.3748 88.7697 28.2309C88.928 28.0871 89.1222 27.8784 89.3524 27.6051C89.597 27.3317 89.8344 26.9504 90.0646 26.4612C90.6114 25.2958 90.8847 23.4614 90.8847 20.9579C90.8847 18.4544 90.6977 16.6703 90.3236 15.6056C89.9495 14.5409 89.2661 13.5265 88.2733 12.5626C88.2733 12.059 88.6762 11.6777 89.4819 11.4187C89.7841 11.3324 90.1437 11.2892 90.561 11.2892C91.971 11.2892 93.158 12.0446 94.122 13.5553C94.1939 13.4114 94.3666 13.1812 94.64 12.8647C94.9277 12.5338 95.2011 12.2676 95.4601 12.0662C96.1651 11.5482 96.8701 11.2892 97.5751 11.2892C98.2945 11.2892 98.8412 11.3971 99.2153 11.613C99.5894 11.8288 99.8052 12.0374 99.8628 12.2388L99.9491 12.5626C99.0714 13.2676 98.4384 14.0229 98.0499 14.8286C97.6758 15.62 97.4456 16.6775 97.3593 18.0012L104.373 29.0079C104.834 27.6123 105.064 24.6843 105.064 20.2241C105.064 18.2098 104.877 16.6703 104.503 15.6056C104.129 14.5409 103.445 13.5265 102.453 12.5626C102.453 12.0446 102.855 11.6633 103.661 11.4187C103.963 11.3324 104.316 11.2892 104.719 11.2892C106.129 11.2892 107.316 12.0446 108.28 13.5553C108.323 13.4978 108.373 13.4186 108.431 13.3179C108.503 13.2172 108.654 13.0374 108.884 12.7784C109.129 12.505 109.373 12.2676 109.618 12.0662C110.308 11.5482 111.013 11.2892 111.733 11.2892C112.452 11.2892 112.999 11.3971 113.373 11.613C113.761 11.8288 113.984 12.0374 114.042 12.2388L114.128 12.5626C113.136 13.5265 112.452 14.5409 112.078 15.6056C111.704 16.6703 111.517 18.0875 111.517 19.8572C111.517 21.6269 111.596 23.0513 111.754 24.1304C111.913 25.1951 112.107 25.972 112.337 26.4612C112.567 26.9504 112.797 27.3317 113.028 27.6051C113.272 27.8784 113.474 28.0871 113.632 28.2309C113.79 28.3748 113.869 28.5187 113.869 28.6626C113.869 28.7921 113.79 28.9288 113.632 29.0726C113.474 29.2165 113.272 29.4395 113.028 29.7417C112.797 30.0294 112.567 30.4251 112.337 30.9287C111.79 32.1229 111.517 33.9357 111.517 36.3673C111.517 38.7988 111.704 40.5685 112.078 41.6764C112.452 42.7843 113.136 43.8202 114.128 44.7842C114.128 45.3021 113.725 45.6906 112.92 45.9496C112.618 46.0359 112.193 46.0791 111.646 46.0791C111.114 46.0791 110.553 45.8705 109.963 45.4532C109.373 45.036 108.941 44.6259 108.668 44.2231L108.28 43.5972C108.222 43.7411 108.049 43.9928 107.762 44.3525C107.474 44.7122 107.201 45 106.942 45.2158C106.251 45.7913 105.604 46.0791 104.999 46.0791C104.409 46.0791 103.963 46.0359 103.661 45.9496C103.359 45.8633 103.129 45.7554 102.971 45.6259C102.683 45.3669 102.51 45.0863 102.453 44.7842C103.301 44.0216 103.913 43.2015 104.287 42.3239C104.675 41.4462 104.92 40.2952 105.021 38.8708L97.4672 28.1446C97.3808 29.9143 97.3377 32.3315 97.3377 35.3961C97.3377 38.4607 97.5247 40.5541 97.8988 41.6764C98.2729 42.7843 98.9563 43.8202 99.9491 44.7842C99.9491 45.3165 99.5462 45.705 98.7405 45.9496C98.4384 46.0359 98.0859 46.0791 97.683 46.0791C96.273 46.0791 95.086 45.2518 94.122 43.5972ZM145.098 14.915C144.954 15.3322 144.882 15.7423 144.882 16.1451C144.882 16.5336 145.041 16.8645 145.357 17.1379C145.688 17.4113 146.141 17.5479 146.717 17.5479C147.307 17.5479 147.782 17.3681 148.141 17.0084C148.515 16.6487 148.702 16.1164 148.702 15.4114C148.702 14.7063 148.321 13.9941 147.559 13.2748C146.81 12.541 145.782 12.1741 144.472 12.1741C143.163 12.1741 141.904 12.4187 140.696 12.9079C139.487 13.3827 138.509 14.0877 137.76 15.0229C137.027 15.9581 136.66 16.9796 136.66 18.0875C136.66 19.1954 136.962 20.3032 137.566 21.4111C138.113 21.3535 138.537 21.3248 138.839 21.3248C139.919 21.3248 140.739 21.5837 141.3 22.1017C141.861 22.6053 142.141 23.2384 142.141 24.0009C142.141 24.375 141.847 24.7203 141.257 25.0368C140.681 25.339 139.969 25.4901 139.12 25.4901C138.286 25.4901 137.358 25.1447 136.336 24.4541C135.487 25.044 134.761 25.8785 134.156 26.9576C133.566 28.0223 133.271 29.3316 133.271 30.8855C133.271 31.6624 133.638 32.3459 134.372 32.9358C134.645 33.1516 134.897 33.353 135.127 33.5401C135.358 33.7127 135.473 33.8134 135.473 33.8422C135.473 33.871 135.386 34.0293 135.214 34.317C134.696 35.1371 134.437 35.8493 134.437 36.4536C134.437 38.0507 135.379 39.324 137.264 40.2736C138.746 41.0218 140.35 41.3958 142.077 41.3958C145.098 41.3958 147.544 40.4822 149.415 38.655C150.724 37.3744 151.379 35.7414 151.379 33.7559C151.379 31.8423 150.832 30.4251 149.738 29.5043C149.249 29.087 148.695 28.8784 148.076 28.8784C147.458 28.8784 146.897 28.9503 146.393 29.0942C145.904 29.2381 145.515 29.4395 145.228 29.6985C144.638 30.2165 144.343 30.8495 144.343 31.5977C144.343 32.3315 144.609 33.0293 145.141 33.6911C145.688 34.353 146.372 34.763 147.192 34.9213C146.99 35.3529 146.652 35.5688 146.177 35.5688C144.652 35.5688 143.458 35.1659 142.595 34.3602C141.731 33.5545 141.3 32.5689 141.3 31.4035C141.3 29.2884 142.494 27.6626 144.882 26.526C146.149 25.9361 147.681 25.6411 149.479 25.6411L151.961 25.7059C153.141 25.7059 153.911 25.6052 154.27 25.4037C154.645 25.2023 154.911 25.0368 155.069 24.9073C155.227 24.7635 155.342 24.5692 155.414 24.3246C155.515 23.9506 155.565 23.5261 155.565 23.0513C155.565 22.5765 155.457 22.1593 155.242 21.7996C154.796 21.037 154.04 20.555 152.976 20.3536C153.494 19.2457 154.22 18.6918 155.155 18.6918C155.803 18.6918 156.666 18.9436 157.745 19.4471C157.76 18.8285 157.932 18.217 158.263 17.6127C158.608 17.0084 159.04 16.5192 159.558 16.1451C160.09 15.7567 160.565 15.5624 160.982 15.5624C161.414 15.5624 161.781 15.6344 162.083 15.7782C161.479 16.5264 161.177 17.3897 161.177 18.3681C161.177 18.7853 161.234 19.2673 161.349 19.814C161.695 21.4255 161.867 22.5262 161.867 23.1161C161.867 23.706 161.781 24.2743 161.608 24.821C161.436 25.3534 161.205 25.8138 160.918 26.2023C160.644 26.5763 160.292 26.9073 159.86 27.195C159.443 27.4684 159.004 27.6914 158.544 27.8641C158.083 28.0223 157.558 28.1446 156.968 28.2309C155.99 28.4036 155.141 28.4899 154.422 28.4899C153.717 28.4899 153.242 28.4899 152.997 28.4899C152.753 28.4899 152.573 28.4899 152.458 28.4899C153.249 29.2813 153.875 30.2452 154.335 31.3819C154.81 32.5185 155.047 33.6911 155.047 34.8997C155.047 36.1083 154.911 37.2665 154.637 38.3744C154.364 39.4679 153.889 40.547 153.213 41.6117C152.537 42.6764 151.695 43.6044 150.688 44.3957C148.443 46.1366 145.372 47.0071 141.472 47.0071C136.264 47.0071 132.329 45.4244 129.667 42.2591C128.905 41.3671 128.358 40.5254 128.027 39.734C127.696 38.9283 127.322 38.2089 126.905 37.5759C126.487 36.9428 126.121 36.4176 125.804 36.0004C125.488 35.5688 125.329 35.3242 125.329 35.2666C125.329 35.2091 125.437 35.0364 125.653 34.7486C126.444 33.7703 127.027 32.9789 127.401 32.3746C128.236 27.1375 130.638 23.8211 134.609 22.4254C133.559 20.9003 133.034 19.5623 133.034 18.4112C133.034 17.2602 133.336 16.1164 133.94 14.9797C134.559 13.8287 135.394 12.8647 136.444 12.0878C138.674 10.4619 141.458 9.64901 144.796 9.64901C147.818 9.64901 150.069 10.6202 151.551 12.5626C152.299 13.5409 152.673 14.7567 152.673 16.2099C152.673 17.6631 152.163 18.9364 151.141 20.0299C150.12 21.1233 148.781 21.6701 147.127 21.6701C145.76 21.6701 144.631 21.4255 143.739 20.9363C143.48 20.7924 143.206 20.6413 142.918 20.4831C142.645 20.3104 142.35 20.145 142.034 19.9867C141.285 19.6126 140.321 19.3177 139.142 19.1018C139.228 18.4256 139.566 17.9436 140.156 17.6559C140.415 17.5264 140.688 17.4616 140.976 17.4616L142.508 17.4832C142.508 16.8645 142.623 16.3178 142.854 15.843C143.271 14.9797 143.724 14.5481 144.213 14.5481C144.645 14.5481 144.94 14.6704 145.098 14.915ZM211.98 11.2892C212.987 11.2892 213.491 11.6633 213.491 12.4115V12.5626C212.254 13.7567 211.275 15.5121 210.556 17.8285C209.851 20.1306 209.498 22.6413 209.498 25.3606C209.498 26.3965 209.57 27.1878 209.714 27.7346C209.858 28.2669 209.93 28.5403 209.93 28.5547C208.218 31.5617 206.966 34.6551 206.175 37.8348C205.873 39.0578 205.721 40.2304 205.721 41.3527C205.721 42.4605 206.103 43.6044 206.865 44.7842V44.8705C206.865 45.6762 206.052 46.0791 204.427 46.0791C203.736 46.0791 203.153 45.8777 202.678 45.4748C201.916 44.813 201.34 44.1871 200.952 43.5972C200.535 44.6187 199.715 45.3597 198.492 45.8201C197.988 45.9928 197.47 46.0791 196.938 46.0791C196.405 46.0791 195.981 45.9712 195.664 45.7554C195.348 45.5395 195.118 45.2158 194.974 44.7842C195.837 43.6044 196.269 42.2735 196.269 40.7915C196.269 40.2736 196.175 39.5614 195.988 38.655C195.801 37.7485 195.628 36.878 195.47 36.0436C195.024 33.6696 194.492 31.2884 193.873 28.9L193.549 27.6267C192.715 30.1445 191.952 32.7559 191.262 35.4608C190.571 38.1514 190.226 40.0865 190.226 41.2663C190.226 42.4318 190.607 43.6044 191.37 44.7842V44.8705C191.37 45.6762 190.557 46.0791 188.931 46.0791C188.24 46.0791 187.658 45.8777 187.183 45.4748C186.42 44.813 185.845 44.1871 185.456 43.5972C185.039 44.6187 184.219 45.3597 182.996 45.8201C182.492 45.9928 181.974 46.0791 181.442 46.0791C180.91 46.0791 180.485 45.9712 180.169 45.7554C179.852 45.5395 179.622 45.2158 179.478 44.7842C180.341 43.6044 180.773 42.2735 180.773 40.7915C180.773 40.0146 180.586 38.8132 180.212 37.1874C179.838 35.5472 179.442 34.1947 179.025 33.13C178.622 32.0653 178.255 31.2956 177.924 30.8208C177.593 30.3316 177.284 29.9431 176.996 29.6553C176.708 29.3676 176.478 29.159 176.305 29.0295C176.147 28.8856 176.068 28.7489 176.068 28.6194C176.068 28.4899 176.126 28.3532 176.241 28.2094C176.356 28.0511 176.485 27.8928 176.629 27.7346C177.003 27.3029 177.19 26.4397 177.19 25.1447C177.19 22.5262 176.802 20.0658 176.025 17.7638C175.262 15.4617 174.262 13.728 173.025 12.5626V12.4762C173.025 11.6849 173.68 11.2892 174.989 11.2892C176.313 11.2892 177.593 12.0446 178.831 13.5553C179.593 12.0446 180.751 11.2892 182.305 11.2892C183.14 11.2892 183.701 11.3971 183.989 11.613C184.463 11.9727 184.758 12.2892 184.873 12.5626C184.01 13.7136 183.579 15.0804 183.579 16.6631C183.579 17.4832 183.679 18.4184 183.881 19.4687C184.082 20.519 184.564 23.5621 185.327 28.5978C186.089 33.6336 186.506 36.4536 186.578 37.0579C187.327 34.6695 187.701 33.0581 187.701 32.2236C187.701 31.3891 187.643 30.7488 187.528 30.3028C187.413 29.8424 187.298 29.5115 187.183 29.31C187.082 29.1086 187.032 28.9791 187.032 28.9216C187.032 28.864 187.06 28.8065 187.118 28.7489C189.319 26.2023 190.42 22.4326 190.42 17.44C190.42 16.7206 190.298 16.0156 190.053 15.325C189.809 14.6344 189.585 14.1308 189.384 13.8143C189.183 13.4978 188.895 13.0805 188.521 12.5626V12.541C188.521 12.282 188.679 12.0446 188.996 11.8288C189.557 11.4691 190.118 11.2892 190.679 11.2892C191.254 11.2892 191.722 11.3684 192.082 11.5266C192.441 11.6849 192.736 11.8719 192.967 12.0878C193.456 12.5338 193.837 13.023 194.11 13.5553C194.139 13.4978 194.175 13.4186 194.218 13.3179C194.262 13.2172 194.369 13.0374 194.542 12.7784C194.715 12.505 194.909 12.2748 195.125 12.0878C195.341 11.8863 195.628 11.7065 195.988 11.5482C196.348 11.3756 196.736 11.2892 197.154 11.2892C197.571 11.2892 197.938 11.3324 198.254 11.4187C198.585 11.505 198.837 11.613 199.01 11.7424C199.369 12.0158 199.607 12.2892 199.722 12.5626C198.815 13.656 198.362 15.0445 198.362 16.7278C198.362 18.3824 198.952 22.0082 200.132 27.6051C201.312 33.1876 201.959 36.3385 202.074 37.0579C202.535 34.6551 202.765 33.0077 202.765 32.1157C202.765 31.2236 202.714 30.5474 202.614 30.087C202.513 29.6266 202.412 29.31 202.312 29.1374C202.225 28.9503 202.189 28.8208 202.204 28.7489C202.218 28.6626 202.254 28.5403 202.312 28.382C202.384 28.2094 202.506 27.8641 202.678 27.3461C202.851 26.8281 203.017 26.3102 203.175 25.7922C203.333 25.2598 203.506 24.6196 203.693 23.8714C203.88 23.1089 204.045 22.3679 204.189 21.6485C204.506 19.9795 204.664 18.3033 204.664 16.6199C204.664 14.9366 204.283 13.5841 203.52 12.5626C203.535 12.5338 203.549 12.4906 203.563 12.4331C203.578 12.3755 203.628 12.2748 203.714 12.1309C203.815 11.9727 203.923 11.836 204.038 11.7209C204.355 11.4331 204.75 11.2892 205.225 11.2892C205.714 11.2892 206.153 11.3684 206.542 11.5266C206.944 11.6849 207.254 11.8719 207.47 12.0878C207.959 12.5626 208.297 13.0517 208.484 13.5553C209.002 12.9366 209.592 12.4043 210.254 11.9583C210.916 11.5122 211.491 11.2892 211.98 11.2892Z" fill="url(#paint2_linear)"/>
<path d="M91.508 70.6195C91.2722 72.1223 90.9407 73.5809 90.5135 74.9953C90.1009 76.4097 89.6442 77.4484 89.1433 78.1114C88.6424 78.7744 88.0383 79.1058 87.3311 79.1058C86.8154 79.1058 86.5576 78.907 86.5576 78.5092C86.5576 78.185 86.6681 77.9567 86.8891 77.8241C87.1101 77.6915 87.3679 77.5957 87.6626 77.5368C87.972 77.4631 88.1709 77.3821 88.2593 77.2937C88.8044 76.7191 89.3054 75.6951 89.7621 74.2218C90.2335 72.7338 90.5724 71.2236 90.7787 69.6913C90.1451 69.0284 89.8284 68.4906 89.8284 68.0781C89.8284 67.6655 89.9462 67.1941 90.182 66.6637C90.4177 66.1186 90.6976 65.846 91.0218 65.846C91.2133 65.846 91.3827 66.0817 91.5301 66.5532C91.6774 67.0246 91.7511 67.614 91.7511 68.3212C92.5172 69.2936 93.1139 70.1333 93.5411 70.8405C93.9979 69.3378 94.624 68.0781 95.4196 67.0615C96.2152 66.0302 97.1287 65.5145 98.16 65.5145C98.5283 65.5145 98.823 65.6471 99.044 65.9123C99.265 66.1775 99.3755 66.4722 99.3755 66.7963C99.3755 67.1204 99.3092 67.4151 99.1766 67.6803C99.0587 67.9307 98.8967 68.056 98.6904 68.056C98.4841 68.056 98.381 67.9528 98.381 67.7466C98.381 67.5403 98.3147 67.3856 98.1821 67.2825C98.0642 67.1646 97.9095 67.1057 97.718 67.1057C97.1139 67.1057 96.5467 67.4224 96.0163 68.056C95.2649 68.9547 94.6388 70.2365 94.1378 71.9013C95.1102 73.9934 95.5964 75.6878 95.5964 76.9843C95.5964 77.5147 95.4786 77.9861 95.2428 78.3987C95.0071 78.7965 94.6609 78.9954 94.2041 78.9954C93.2317 78.9954 92.7456 78.1703 92.7456 76.5202C92.7456 75.3563 92.834 74.2513 93.0107 73.2052C92.5688 72.2623 92.0678 71.4004 91.508 70.6195ZM93.5411 74.6638C93.4675 75.1942 93.4306 75.7393 93.4306 76.2992C93.4306 76.859 93.4675 77.2937 93.5411 77.6031C93.6148 77.9125 93.6958 78.0672 93.7842 78.0672C93.961 78.0672 94.0494 77.7651 94.0494 77.1611C94.0494 76.557 93.88 75.7246 93.5411 74.6638ZM100.239 78.8849C99.4139 78.8849 98.7582 78.5755 98.272 77.9567C97.7859 77.3231 97.5428 76.6086 97.5428 75.813C97.5428 74.2071 97.8816 72.9916 98.5593 72.1665C99.2371 71.3415 100.114 70.9289 101.189 70.9289C101.69 70.9289 102.103 71.0689 102.427 71.3488C102.751 71.614 102.913 71.9824 102.913 72.4538C102.913 73.3378 102.537 74.0818 101.786 74.6859C101.049 75.2752 100.143 75.5846 99.0676 75.6141C99.1266 76.1887 99.3181 76.6896 99.6422 77.1169C99.9811 77.5294 100.372 77.7357 100.814 77.7357C101.256 77.7357 101.653 77.6325 102.007 77.4263C102.361 77.22 102.685 76.9253 102.979 76.5423C103.598 75.732 104.128 74.8111 104.57 73.7798C104.688 73.5146 104.777 73.3231 104.836 73.2052C104.909 73.0873 104.983 73.0284 105.057 73.0284C105.145 73.0284 105.189 73.0873 105.189 73.2052C105.189 73.9419 104.74 75.0469 103.841 76.5202C102.869 78.0966 101.668 78.8849 100.239 78.8849ZM99.0676 75.0837C99.9369 74.9364 100.57 74.6564 100.968 74.2439C101.381 73.8314 101.587 73.2936 101.587 72.6306C101.587 71.9676 101.373 71.6361 100.946 71.6361C100.43 71.6361 99.9958 71.9971 99.6422 72.719C99.2886 73.4262 99.0971 74.2144 99.0676 75.0837ZM113.211 74.1997C113.83 74.1997 114.404 73.9345 114.935 73.4041C115.2 73.1389 115.377 73.0063 115.465 73.0063C115.568 73.0063 115.62 73.08 115.62 73.2273C115.62 73.3746 115.524 73.5514 115.332 73.7577C114.552 74.627 113.572 75.0616 112.393 75.0616C112.157 76.1518 111.789 77.0653 111.288 77.802C110.787 78.5239 110.154 78.8849 109.388 78.8849C108.621 78.8849 108.069 78.4355 107.73 77.5368C107.126 78.4355 106.5 78.8849 105.852 78.8849C104.629 78.8849 104.017 77.7062 104.017 75.3489C104.017 73.7135 104.179 72.6012 104.503 72.0118C104.562 71.9087 104.783 71.7393 105.166 71.5035C105.55 71.2678 105.815 71.1499 105.962 71.1499C106.183 71.1499 106.294 71.2825 106.294 71.5477C106.264 72.2402 106.058 73.0579 105.675 74.0008C105.586 74.1776 105.542 74.6049 105.542 75.2826C105.542 75.9456 105.616 76.5349 105.763 77.0506C105.925 77.5515 106.154 77.802 106.448 77.802C106.743 77.802 107.104 77.4484 107.531 76.7412C107.457 76.3728 107.421 75.9824 107.421 75.5699C107.421 75.1426 107.465 74.6933 107.553 74.2218C107.642 73.7356 107.818 73.2494 108.084 72.7632C108.349 72.277 108.666 72.0339 109.034 72.0339C109.152 72.0339 109.233 72.0708 109.277 72.1444C109.336 72.2181 109.365 72.3949 109.365 72.6748C109.365 73.4262 109.167 74.3618 108.769 75.4815C108.828 76.1297 108.975 76.6822 109.211 77.139C109.461 77.581 109.734 77.802 110.028 77.802C110.456 77.802 110.817 77.5294 111.111 76.9843C111.406 76.4244 111.634 75.7467 111.796 74.9511C111.251 74.8038 110.831 74.5238 110.537 74.1113C110.242 73.6988 110.095 73.2273 110.095 72.6969C110.095 72.1518 110.22 71.6877 110.47 71.3046C110.736 70.9068 111.119 70.7079 111.62 70.7079C112.297 70.7079 112.636 71.4372 112.636 72.8958C112.636 73.2789 112.614 73.6767 112.57 74.0892C112.791 74.1629 113.005 74.1997 113.211 74.1997ZM111.465 71.5477C111.332 71.5477 111.266 71.7982 111.266 72.2991C111.266 72.8001 111.494 73.2641 111.951 73.6914C111.966 73.6177 111.973 73.5072 111.973 73.3599C111.973 72.1518 111.804 71.5477 111.465 71.5477ZM117.561 72.0118L117.605 71.6803C117.605 71.4151 117.45 71.2825 117.141 71.2825C116.846 71.2825 116.559 71.4814 116.279 71.8792C115.999 72.2623 115.859 72.5791 115.859 72.8295C115.859 73.08 115.874 73.2789 115.904 73.4262C115.933 73.5735 115.962 73.6988 115.992 73.8019C116.036 73.8903 116.102 74.0008 116.191 74.1334C116.279 74.266 116.346 74.3618 116.39 74.4207L116.633 74.7301C116.736 74.8774 116.81 74.9732 116.854 75.0174C117.62 74.3839 118.533 73.6767 119.594 72.8958C119.653 72.8516 119.719 72.8295 119.793 72.8295C119.94 72.8295 120.014 72.9105 120.014 73.0726C120.014 73.2347 119.948 73.3599 119.815 73.4483C118.872 74.0524 117.981 74.708 117.141 75.4152C117.465 75.8867 117.627 76.4023 117.627 76.9622C117.627 77.522 117.414 78.0009 116.986 78.3987C116.559 78.7965 116.014 78.9954 115.351 78.9954C114.688 78.9954 114.357 78.6786 114.357 78.0451C114.357 77.5883 114.843 76.8885 115.815 75.9456C115.741 75.8572 115.609 75.7172 115.417 75.5257C115.226 75.3194 115.078 75.1574 114.975 75.0395C114.887 74.9216 114.776 74.7669 114.644 74.5754C114.408 74.2071 114.29 73.8093 114.29 73.382C114.29 72.5128 114.57 71.8129 115.13 71.2825C115.69 70.7374 116.287 70.4648 116.92 70.4648C117.318 70.4648 117.627 70.5753 117.848 70.7963C118.069 71.0026 118.18 71.2162 118.18 71.4372C118.18 71.9382 118.062 72.1886 117.826 72.1886C117.649 72.1886 117.561 72.1297 117.561 72.0118ZM116.147 76.3655C115.557 76.9548 115.263 77.4336 115.263 77.802C115.263 78.1556 115.447 78.3324 115.815 78.3324C116.036 78.3324 116.22 78.244 116.368 78.0672C116.692 77.6252 116.618 77.0579 116.147 76.3655ZM126.384 71.8792C125.632 70.4943 125.257 69.3746 125.257 68.5201C125.257 67.6655 125.573 66.9068 126.207 66.2438C126.841 65.5808 127.651 65.2493 128.638 65.2493C129.64 65.2493 130.421 65.4703 130.981 65.9123C131.54 66.3396 131.82 66.9362 131.82 67.7024C131.82 68.4685 131.489 69.1683 130.826 69.8018C130.133 70.4354 129.515 70.9216 128.969 71.2604C128.439 71.5993 128.144 71.7908 128.085 71.835C129.087 73.2789 130.325 74.6417 131.798 75.9235C132.049 75.3931 132.174 74.9069 132.174 74.4649C132.174 74.0082 132.086 73.6546 131.909 73.4041C131.732 73.1389 131.526 72.9916 131.29 72.9621C131.069 72.9326 130.958 72.8369 130.958 72.6748C130.958 72.4686 131.062 72.3065 131.268 72.1886C131.474 72.0708 131.776 72.0118 132.174 72.0118C132.586 72.0118 132.925 72.1739 133.191 72.498C133.47 72.8221 133.61 73.2199 133.61 73.6914C133.61 74.7227 133.279 75.6951 132.616 76.6086C133.647 77.4189 134.62 77.9935 135.533 78.3324C135.71 78.3913 135.85 78.4429 135.953 78.4871C136.056 78.5165 136.152 78.5534 136.24 78.5976C136.417 78.6712 136.506 78.7744 136.506 78.907C136.506 79.0543 136.343 79.2163 136.019 79.3931C135.71 79.5847 135.43 79.6804 135.18 79.6804C134.03 79.6804 132.719 79.0911 131.246 77.9125C130.141 78.6786 128.866 79.0616 127.422 79.0616C125.993 79.0616 124.947 78.7596 124.284 78.1556C123.621 77.5368 123.29 76.8075 123.29 75.9677C123.29 75.1132 123.555 74.3839 124.085 73.7798C124.631 73.161 125.397 72.5275 126.384 71.8792ZM125.168 75.3489C125.168 76.1297 125.456 76.7927 126.03 77.3379C126.605 77.883 127.327 78.1556 128.196 78.1556C129.065 78.1556 129.868 77.883 130.605 77.3379C129.161 76.0266 127.894 74.4723 126.804 72.6748C125.713 73.4851 125.168 74.3765 125.168 75.3489ZM127.621 71.0836C128.461 70.5385 129.095 70.0376 129.522 69.5809C129.964 69.1094 130.185 68.5937 130.185 68.0339C130.185 67.4593 130.023 66.9952 129.699 66.6416C129.375 66.288 128.918 66.1112 128.329 66.1112C127.754 66.1112 127.327 66.3248 127.047 66.7521C126.782 67.1646 126.649 67.7171 126.649 68.4096C126.649 69.0873 126.973 69.9786 127.621 71.0836ZM149.444 68.1665L149.311 69.8018C149.311 71.8645 149.444 73.684 149.709 75.2605C149.974 76.8222 150.291 77.6031 150.659 77.6031C151.16 77.6031 151.713 76.9032 152.317 75.5036C152.921 74.1039 153.223 72.7043 153.223 71.3046C153.223 69.6987 153.053 68.6085 152.714 68.0339C152.582 67.8276 152.376 67.5845 152.096 67.3046C151.58 66.7889 151.322 66.2954 151.322 65.8239C151.322 65.6029 151.381 65.4261 151.499 65.2935C151.632 65.1462 151.786 65.0725 151.963 65.0725C152.42 65.0725 152.803 65.2567 153.112 65.625C153.422 65.9786 153.643 66.4427 153.775 67.0173C154.026 68.0339 154.151 69.1094 154.151 70.2438C154.151 72.8811 153.657 75.0174 152.67 76.6528C151.698 78.2882 150.74 79.1058 149.797 79.1058C149.12 79.1058 148.611 78.3839 148.272 76.9401C147.948 75.4962 147.786 73.6619 147.786 71.4372C146.902 75.1205 145.967 77.4484 144.98 78.4208C144.493 78.8775 143.97 79.1058 143.41 79.1058C143.116 79.1058 142.821 78.9806 142.526 78.7302C142.247 78.465 142.04 78.1187 141.908 77.6915C141.613 76.8222 141.466 75.1647 141.466 72.719C140.847 72.6306 140.294 72.4686 139.808 72.2328C139.572 72.115 139.455 71.9824 139.455 71.835C139.455 71.6877 139.602 71.614 139.897 71.614L141.488 71.9455C141.62 69.3967 142.099 67.4298 142.924 66.0449C143.366 65.2935 143.86 64.9178 144.405 64.9178C145.392 64.9178 145.886 65.6545 145.886 67.1278C145.886 68.3212 145.657 69.463 145.201 70.5532C144.744 71.6435 144.059 72.336 143.145 72.6306C143.145 73.6177 143.204 74.5017 143.322 75.2826C143.558 76.8296 143.845 77.6031 144.184 77.6031C144.464 77.6031 144.832 77.1832 145.289 76.3434C145.746 75.4889 146.188 74.3397 146.615 72.8958C147.057 71.452 147.344 70.0302 147.477 68.6306C147.492 68.4243 147.69 68.1886 148.074 67.9234C148.457 67.6582 148.722 67.5256 148.869 67.5256C149.252 67.5256 149.444 67.7392 149.444 68.1665ZM143.145 71.9455C143.779 71.6951 144.265 71.0984 144.604 70.1554C144.957 69.1978 145.134 68.4464 145.134 67.9013C145.134 67.3414 145.112 66.9289 145.068 66.6637C144.965 66.207 144.825 65.9786 144.648 65.9786C144.324 65.9786 144 66.6563 143.676 68.0118C143.366 69.3525 143.189 70.6637 143.145 71.9455ZM157.388 78.8849C156.562 78.8849 155.907 78.5755 155.421 77.9567C154.934 77.3231 154.691 76.6086 154.691 75.813C154.691 74.2071 155.03 72.9916 155.708 72.1665C156.386 71.3415 157.262 70.9289 158.338 70.9289C158.839 70.9289 159.251 71.0689 159.575 71.3488C159.9 71.614 160.062 71.9824 160.062 72.4538C160.062 73.3378 159.686 74.0818 158.935 74.6859C158.198 75.2752 157.292 75.5846 156.216 75.6141C156.275 76.1887 156.467 76.6896 156.791 77.1169C157.13 77.5294 157.52 77.7357 157.962 77.7357C158.404 77.7357 158.802 77.6325 159.156 77.4263C159.509 77.22 159.833 76.9253 160.128 76.5423C160.747 75.732 161.277 74.8111 161.719 73.7798C161.837 73.5146 161.925 73.3231 161.984 73.2052C162.058 73.0873 162.132 73.0284 162.205 73.0284C162.294 73.0284 162.338 73.0873 162.338 73.2052C162.338 73.9419 161.889 75.0469 160.99 76.5202C160.017 78.0966 158.817 78.8849 157.388 78.8849ZM156.216 75.0837C157.086 74.9364 157.719 74.6564 158.117 74.2439C158.529 73.8314 158.736 73.2936 158.736 72.6306C158.736 71.9676 158.522 71.6361 158.095 71.6361C157.579 71.6361 157.144 71.9971 156.791 72.719C156.437 73.4262 156.246 74.2144 156.216 75.0837ZM167.376 78.8849C166.801 78.8849 166.367 78.767 166.072 78.5313C165.969 78.4281 165.917 78.1703 165.917 77.7578C165.917 77.3305 165.932 76.7633 165.962 76.0561C165.578 77.0137 165.195 77.7283 164.812 78.1998C164.444 78.6565 163.965 78.8849 163.376 78.8849C162.787 78.8849 162.271 78.6123 161.829 78.0672C161.387 77.5073 161.166 76.638 161.166 75.4594C161.166 74.266 161.497 73.2126 162.16 72.2991C162.838 71.3857 163.722 70.9289 164.812 70.9289C165.284 70.9289 165.814 71.2383 166.404 71.8571C166.521 71.6951 166.728 71.5035 167.022 71.2825C167.332 71.0468 167.59 70.9289 167.796 70.9289C168.017 70.9289 168.127 71.2089 168.127 71.7687C168.127 71.9161 168.083 72.2034 167.995 72.6306C167.921 73.0579 167.833 73.3673 167.73 73.5588C167.597 73.8977 167.531 75.0984 167.531 77.1611C167.531 77.5589 167.575 77.7578 167.663 77.7578C167.914 77.743 168.26 77.4336 168.702 76.8296C169.144 76.2108 169.579 75.4226 170.006 74.4649C170.448 73.5072 170.713 73.0284 170.801 73.0284C170.905 73.0284 170.956 73.0873 170.956 73.2052C170.956 73.6177 170.742 74.2734 170.315 75.1721C169.151 77.6473 168.172 78.8849 167.376 78.8849ZM164.68 71.8129C164.267 71.8129 163.825 72.1223 163.354 72.7411C162.897 73.3452 162.669 74.0597 162.669 74.8848C162.669 75.7099 162.787 76.3876 163.022 76.918C163.273 77.4484 163.597 77.7136 163.995 77.7136C164.481 77.7136 165.195 76.4981 166.138 74.0671C166.153 73.9492 166.168 73.7503 166.183 73.4704C166.212 73.1757 166.234 72.9547 166.249 72.8074C166.116 72.5717 165.881 72.3507 165.542 72.1444C165.218 71.9234 164.93 71.8129 164.68 71.8129ZM174.576 75.1721C173.412 77.6473 172.425 78.8849 171.615 78.8849C170.819 78.8849 170.348 78.7891 170.201 78.5976C170.068 78.406 170.002 77.7725 170.002 76.697C170.002 75.6215 170.105 74.0671 170.311 72.0339C169.574 71.8866 169.184 71.5846 169.14 71.1278C169.14 70.8921 169.294 70.7742 169.604 70.7742C169.913 70.7742 170.186 70.8332 170.422 70.951C170.554 69.8902 170.709 68.8147 170.886 67.7245C170.93 67.4445 171.07 67.1793 171.306 66.9289C171.541 66.6784 171.77 66.5532 171.991 66.5532C172.182 66.5532 172.278 66.8552 172.278 67.4593C172.278 67.7392 172.175 69.0284 171.969 71.3267C172.366 71.2531 172.801 71.1057 173.272 70.8847C173.759 70.6637 174.046 70.5532 174.134 70.5532C174.4 70.5532 174.532 70.6343 174.532 70.7963C174.547 70.9437 174.274 71.1499 173.714 71.4151C173.155 71.6656 172.551 71.8571 171.902 71.9897C171.725 74.1408 171.637 75.7688 171.637 76.8738C171.637 77.4631 171.725 77.7578 171.902 77.7578C172.167 77.743 172.521 77.4336 172.963 76.8296C173.405 76.2255 173.84 75.4447 174.267 74.487C174.709 73.5146 174.974 73.0284 175.063 73.0284C175.166 73.0284 175.217 73.0873 175.217 73.2052C175.217 73.6177 175.004 74.2734 174.576 75.1721ZM175.906 77.581L175.928 78.2661C175.928 78.6786 175.81 78.8849 175.575 78.8849C175.221 78.8849 174.882 78.8407 174.558 78.7523C174.234 78.6491 174.072 78.5165 174.072 78.3545C174.072 78.1777 174.109 77.5957 174.182 76.6086C174.271 75.6067 174.315 74.8553 174.315 74.3544V73.0726C174.315 69.3009 174.985 66.8994 176.326 65.8681C176.635 65.6324 176.952 65.5145 177.276 65.5145C177.424 65.5145 177.571 65.6766 177.718 66.0007C177.866 66.3248 177.939 66.7447 177.939 67.2604C177.939 68.5274 177.726 69.7134 177.298 70.8184C176.871 71.9234 176.436 72.7706 175.995 73.3599C175.98 73.7282 175.972 74.3028 175.972 75.0837C176.031 74.9953 176.341 74.4944 176.901 73.5809C177.46 72.6675 177.932 71.9971 178.315 71.5698C178.713 71.1426 179.066 70.9289 179.376 70.9289C179.685 70.9289 179.958 71.0321 180.193 71.2383C180.444 71.4446 180.569 71.7024 180.569 72.0118C180.569 72.6601 180.495 73.6177 180.348 74.8848C180.216 76.1371 180.149 76.9327 180.149 77.2716C180.149 77.5957 180.193 77.7578 180.282 77.7578C180.532 77.743 180.879 77.4336 181.321 76.8296C181.763 76.2108 182.197 75.4226 182.624 74.4649C183.066 73.5072 183.332 73.0284 183.42 73.0284C183.523 73.0284 183.575 73.0873 183.575 73.2052C183.575 73.6177 183.361 74.2734 182.934 75.1721C181.77 77.6473 180.79 78.8849 179.995 78.8849C179.42 78.8849 178.985 78.767 178.691 78.5313C178.588 78.4281 178.536 78.1629 178.536 77.7357C178.536 77.2937 178.573 76.5865 178.646 75.6141C178.735 74.627 178.779 73.8903 178.779 73.4041C178.779 72.9179 178.691 72.6748 178.514 72.6748C178.352 72.6748 177.91 73.1831 177.188 74.1997C176.466 75.2016 176.083 75.8425 176.039 76.1224C175.95 76.638 175.906 77.1242 175.906 77.581ZM177.343 67.7466C177.343 67.1278 177.262 66.8184 177.099 66.8184C176.834 66.8184 176.576 67.6361 176.326 69.2715C176.193 70.1407 176.098 71.1499 176.039 72.2991C176.908 70.4869 177.343 68.9694 177.343 67.7466ZM184.969 78.8849C184.144 78.8849 183.488 78.5755 183.002 77.9567C182.516 77.3231 182.273 76.6086 182.273 75.813C182.273 74.2071 182.612 72.9916 183.289 72.1665C183.967 71.3415 184.844 70.9289 185.919 70.9289C186.42 70.9289 186.833 71.0689 187.157 71.3488C187.481 71.614 187.643 71.9824 187.643 72.4538C187.643 73.3378 187.267 74.0818 186.516 74.6859C185.779 75.2752 184.873 75.5846 183.798 75.6141C183.857 76.1887 184.048 76.6896 184.372 77.1169C184.711 77.5294 185.102 77.7357 185.544 77.7357C185.986 77.7357 186.383 77.6325 186.737 77.4263C187.091 77.22 187.415 76.9253 187.709 76.5423C188.328 75.732 188.859 74.8111 189.301 73.7798C189.418 73.5146 189.507 73.3231 189.566 73.2052C189.639 73.0873 189.713 73.0284 189.787 73.0284C189.875 73.0284 189.919 73.0873 189.919 73.2052C189.919 73.9419 189.47 75.0469 188.571 76.5202C187.599 78.0966 186.398 78.8849 184.969 78.8849ZM183.798 75.0837C184.667 74.9364 185.301 74.6564 185.698 74.2439C186.111 73.8314 186.317 73.2936 186.317 72.6306C186.317 71.9676 186.104 71.6361 185.676 71.6361C185.161 71.6361 184.726 71.9971 184.372 72.719C184.019 73.4262 183.827 74.2144 183.798 75.0837ZM190.67 73.0063L191.886 72.8737C192.003 72.8737 192.107 72.94 192.195 73.0726C192.283 73.2052 192.328 73.3452 192.328 73.4925C192.328 73.6398 192.276 74.1408 192.173 74.9953C192.085 75.8498 192.04 76.5275 192.04 77.0285C192.04 77.5147 192.085 77.7578 192.173 77.7578C192.423 77.743 192.77 77.4336 193.212 76.8296C193.654 76.2108 194.088 75.4226 194.515 74.4649C194.957 73.5072 195.223 73.0284 195.311 73.0284C195.414 73.0284 195.466 73.0873 195.466 73.2052C195.466 73.6177 195.252 74.2734 194.825 75.1721C193.661 77.6473 192.681 78.8849 191.886 78.8849C191.311 78.8849 190.876 78.767 190.582 78.5313C190.479 78.4281 190.427 77.7872 190.427 76.6086C190.427 75.4299 190.552 74.4207 190.803 73.5809C189.948 73.5809 189.352 73.3083 189.013 72.7632C188.836 72.4833 188.747 72.1665 188.747 71.8129C188.747 71.4593 188.821 71.1499 188.968 70.8847C189.116 70.6195 189.322 70.4869 189.587 70.4869C189.867 70.4869 190.118 70.6343 190.339 70.9289C190.574 71.2089 190.692 71.5256 190.692 71.8792C190.692 72.2328 190.589 72.5864 190.383 72.94C190.442 72.9842 190.538 73.0063 190.67 73.0063Z" fill="url(#paint3_linear)"/>
<defs>
<linearGradient id="paint0_linear" x1="2.53206" y1="-0.629232" x2="69.6371" y2="93.0645" gradientUnits="userSpaceOnUse">
<stop stop-color="white"/>
<stop offset="1" stop-color="white" stop-opacity="0.8"/>
</linearGradient>
<linearGradient id="paint1_linear" x1="54.9058" y1="53.8386" x2="54.9058" y2="82.1227" gradientUnits="userSpaceOnUse">
<stop stop-color="white"/>
<stop offset="1" stop-color="white" stop-opacity="0.8"/>
</linearGradient>
<linearGradient id="paint2_linear" x1="152" y1="0" x2="152" y2="61" gradientUnits="userSpaceOnUse">
<stop stop-color="white" stop-opacity="0.8"/>
<stop offset="1" stop-color="white" stop-opacity="0.8"/>
</linearGradient>
<linearGradient id="paint3_linear" x1="140.886" y1="60.7744" x2="140.886" y2="84.7158" gradientUnits="userSpaceOnUse">
<stop stop-color="white" stop-opacity="0.8"/>
<stop offset="1" stop-color="white" stop-opacity="0.8"/>
</linearGradient>
</defs>
</svg>
