<svg width="113" height="113" viewBox="0 0 113 113" fill="none" xmlns="http://www.w3.org/2000/svg">
<path d="M93.5782 14.125H19.422C13.9038 14.125 9.41675 18.3484 9.41675 23.5417V89.4583C9.41675 94.6516 13.9038 98.875 19.422 98.875H93.5782C99.0964 98.875 103.583 94.6516 103.583 89.4583V23.5417C103.583 18.3484 99.0964 14.125 93.5782 14.125ZM93.5782 89.4583H19.422C19.1536 89.4583 18.97 89.383 18.8899 89.383C18.857 89.383 18.8381 89.3924 18.8334 89.4207L18.7769 23.7583C18.8099 23.7112 19.0217 23.5417 19.422 23.5417H93.5782C93.9502 23.5464 94.1526 23.6735 94.1667 23.5793L94.2232 89.2418C94.1903 89.2888 93.9784 89.4583 93.5782 89.4583Z" fill="url(#paint0_linear)"/>
<path d="M28.25 32.9583H56.5V61.2083H28.25V32.9583ZM61.2083 70.625H28.25V80.0417H84.75V70.625H65.9167H61.2083ZM65.9167 51.7917H84.75V61.2083H65.9167V51.7917ZM65.9167 32.9583H84.75V42.375H65.9167V32.9583Z" fill="url(#paint1_linear)"/>
<defs>
<linearGradient id="paint0_linear" x1="56.5001" y1="14.125" x2="56.5001" y2="98.875" gradientUnits="userSpaceOnUse">
<stop stop-color="white"/>
<stop offset="1" stop-color="white" stop-opacity="0.6"/>
</linearGradient>
<linearGradient id="paint1_linear" x1="56.5" y1="32.9583" x2="56.5" y2="80.0417" gradientUnits="userSpaceOnUse">
<stop stop-color="white"/>
<stop offset="1" stop-color="white" stop-opacity="0.6"/>
</linearGradient>
</defs>
</svg>
