<svg width="31" height="31" viewBox="0 0 31 31" fill="none" xmlns="http://www.w3.org/2000/svg">
<path d="M15.5 28.4167C22.1275 28.4167 27.125 25.9173 27.125 22.6042V9.04166C27.125 8.97579 27.094 8.91637 27.0824 8.85308C27.103 8.70195 27.125 8.55083 27.125 8.39583C27.125 5.0827 22.1275 2.58333 15.5 2.58333C8.87246 2.58333 3.875 5.0827 3.875 8.39583V22.6042C3.875 25.9173 8.87246 28.4167 15.5 28.4167ZM15.5 5.16666C21.0193 5.16666 24.5417 7.07833 24.5417 8.39583C24.5389 8.46489 24.5281 8.53338 24.5094 8.59991C24.5042 8.61283 24.4939 8.62316 24.49 8.63479C24.1361 9.73012 21.5321 11.1923 17.391 11.5449L17.3264 11.5488C16.7465 11.5979 16.1381 11.625 15.5 11.625C9.98071 11.625 6.45833 9.71333 6.45833 8.39583C6.45833 7.07833 9.98071 5.16666 15.5 5.16666Z" fill="white"/>
</svg>
