<svg width="30" height="30" viewBox="0 0 30 30" fill="none" xmlns="http://www.w3.org/2000/svg">
<g clip-path="url(#clip0)">
<path d="M23.4375 3.75C22.1943 3.75 21.002 4.24386 20.1229 5.12294C19.2439 6.00202 18.75 7.1943 18.75 8.4375C18.75 8.68614 18.6512 8.9246 18.4754 9.10042C18.2996 9.27623 18.0611 9.375 17.8125 9.375C17.5639 9.375 17.3254 9.27623 17.1496 9.10042C16.9738 8.9246 16.875 8.68614 16.875 8.4375C16.875 7.13956 17.2599 5.87077 17.981 4.79157C18.7021 3.71238 19.727 2.87124 20.9261 2.37454C22.1253 1.87784 23.4448 1.74788 24.7178 2.0011C25.9908 2.25432 27.1601 2.87933 28.0779 3.79711C28.9957 4.7149 29.6207 5.88422 29.8739 7.15722C30.1271 8.43022 29.9972 9.74972 29.5005 10.9489C29.0038 12.148 28.1626 13.1729 27.0834 13.894C26.0042 14.6151 24.7354 15 23.4375 15H0.9375C0.68886 15 0.450403 14.9012 0.274587 14.7254C0.0987721 14.5496 0 14.3111 0 14.0625C0 13.8139 0.0987721 13.5754 0.274587 13.3996C0.450403 13.2238 0.68886 13.125 0.9375 13.125H23.4375C24.6807 13.125 25.873 12.6311 26.7521 11.7521C27.6311 10.873 28.125 9.6807 28.125 8.4375C28.125 7.1943 27.6311 6.00202 26.7521 5.12294C25.873 4.24386 24.6807 3.75 23.4375 3.75V3.75ZM10.3125 5.625C9.81522 5.625 9.33831 5.82255 8.98668 6.17418C8.63504 6.52581 8.4375 7.00272 8.4375 7.5C8.4375 7.74864 8.33873 7.9871 8.16291 8.16292C7.9871 8.33873 7.74864 8.4375 7.5 8.4375C7.25136 8.4375 7.0129 8.33873 6.83709 8.16292C6.66127 7.9871 6.5625 7.74864 6.5625 7.5C6.5625 6.75832 6.78243 6.0333 7.19449 5.41661C7.60654 4.79993 8.19221 4.31928 8.87744 4.03545C9.56266 3.75163 10.3167 3.67736 11.0441 3.82206C11.7715 3.96675 12.4397 4.32391 12.9642 4.84835C13.4886 5.3728 13.8458 6.04099 13.9904 6.76841C14.1351 7.49584 14.0609 8.24984 13.777 8.93507C13.4932 9.62029 13.0126 10.206 12.3959 10.618C11.7792 11.0301 11.0542 11.25 10.3125 11.25H0.9375C0.68886 11.25 0.450403 11.1512 0.274587 10.9754C0.0987721 10.7996 0 10.5611 0 10.3125C0 10.0639 0.0987721 9.82541 0.274587 9.64959C0.450403 9.47377 0.68886 9.375 0.9375 9.375H10.3125C10.8098 9.375 11.2867 9.17746 11.6383 8.82583C11.99 8.4742 12.1875 7.99728 12.1875 7.5C12.1875 7.00272 11.99 6.52581 11.6383 6.17418C11.2867 5.82255 10.8098 5.625 10.3125 5.625V5.625ZM0 17.8125C0 17.5639 0.0987721 17.3254 0.274587 17.1496C0.450403 16.9738 0.68886 16.875 0.9375 16.875H19.7662C20.8788 16.875 21.9663 17.2049 22.8913 17.823C23.8164 18.4411 24.5373 19.3196 24.9631 20.3474C25.3888 21.3752 25.5002 22.5062 25.2832 23.5974C25.0661 24.6885 24.5304 25.6908 23.7437 26.4775C22.9571 27.2642 21.9548 27.7999 20.8636 28.0169C19.7725 28.234 18.6415 28.1226 17.6137 27.6968C16.5858 27.2711 15.7073 26.5501 15.0892 25.6251C14.4712 24.7001 14.1412 23.6125 14.1412 22.5C14.1412 22.2514 14.24 22.0129 14.4158 21.8371C14.5917 21.6613 14.8301 21.5625 15.0787 21.5625C15.3274 21.5625 15.5658 21.6613 15.7417 21.8371C15.9175 22.0129 16.0162 22.2514 16.0162 22.5C16.0162 23.2417 16.2362 23.9667 16.6482 24.5834C17.0603 25.2001 17.646 25.6807 18.3312 25.9646C19.0164 26.2484 19.7704 26.3226 20.4978 26.1779C21.2253 26.0333 21.8935 25.6761 22.4179 25.1517C22.9423 24.6272 23.2995 23.959 23.4442 23.2316C23.5889 22.5042 23.5146 21.7502 23.2308 21.0649C22.947 20.3797 22.4663 19.794 21.8496 19.382C21.233 18.9699 20.5079 18.75 19.7662 18.75H0.9375C0.68886 18.75 0.450403 18.6512 0.274587 18.4754C0.0987721 18.2996 0 18.0611 0 17.8125Z" fill="white"/>
</g>
<defs>
<clipPath id="clip0">
<rect width="30" height="30" fill="white"/>
</clipPath>
</defs>
</svg>
