<svg width="113" height="113" viewBox="0 0 113 113" fill="none" xmlns="http://www.w3.org/2000/svg">
<path d="M56.5 14.125C71.416 14.125 79.8816 24.0031 81.1105 35.9246H81.4871C83.768 35.9209 86.0273 36.3667 88.1358 37.2365C90.2443 38.1064 92.1607 39.3832 93.7755 40.9941C95.3903 42.605 96.6718 44.5183 97.5468 46.6246C98.4218 48.731 98.8732 50.9892 98.875 53.2701C98.8725 55.5502 98.4209 57.8075 97.5459 59.913C96.6709 62.0185 95.3897 63.931 93.7755 65.5413C92.1613 67.1516 90.2456 68.4282 88.138 69.298C86.0303 70.1679 83.7719 70.614 81.4918 70.6109H78.7516L78.7375 70.6297H77.4945C77.3968 70.9053 77.2656 71.1678 77.1037 71.4113L72.3953 78.4738C71.8711 79.2417 71.0651 79.7719 70.1524 79.9492C69.2396 80.1266 68.2937 79.9368 67.5201 79.421C66.7464 78.9052 66.2074 78.1051 66.0201 77.1944C65.8327 76.2836 66.0121 75.3357 66.5193 74.5565L69.1513 70.6109H60.535L60.5256 70.6297H58.6564C58.5592 70.9055 58.428 71.1681 58.2656 71.4113L53.5573 78.4738C53.3025 78.8652 52.9727 79.2022 52.5868 79.4652C52.2009 79.7283 51.7667 79.9121 51.3093 80.0062C50.8519 80.1003 50.3804 80.1028 49.922 80.0134C49.4636 79.924 49.0275 79.7447 48.639 79.4856C48.2504 79.2266 47.9171 78.893 47.6583 78.5043C47.3995 78.1156 47.2204 77.6793 47.1313 77.2209C47.0423 76.7625 47.045 76.291 47.1394 75.8336C47.2338 75.3762 47.418 74.9422 47.6813 74.5565L50.318 70.6109H42.3091L42.3044 70.625H39.8231C39.724 70.9008 39.5911 71.1634 39.4276 71.4066L34.7193 78.4691C34.195 79.237 33.389 79.7672 32.4763 79.9445C31.5635 80.1219 30.6177 79.9321 29.844 79.4163C29.0703 78.9005 28.5313 78.1004 28.344 77.1897C28.1566 76.2789 28.336 75.331 28.8433 74.5518L31.4799 70.6062C26.8799 70.6049 22.4685 68.778 19.2145 65.5266C15.9605 62.2753 14.13 57.8654 14.125 53.2654C14.1281 50.9853 14.5803 48.7281 15.4559 46.6228C16.3314 44.5175 17.6131 42.6054 19.2278 40.9955C20.8425 39.3856 22.7585 38.1096 24.8664 37.2403C26.9743 36.3711 29.2328 35.9256 31.5129 35.9293H31.8895C33.1231 23.9183 41.5746 14.125 56.5 14.125ZM56.5 21.1781C46.749 21.1781 38.2458 28.8715 38.2458 39.4935C38.2458 41.1744 36.7438 42.4927 35.0253 42.4927H31.7765C25.8393 42.4927 21.0227 47.2105 21.0227 53.0253C21.0227 58.84 25.8393 63.5531 31.7765 63.5531H81.2188C87.156 63.5531 91.9726 58.84 91.9726 53.0253C91.9726 47.2105 87.156 42.4927 81.2188 42.4927H77.97C76.2515 42.4927 74.7495 41.1744 74.7495 39.4935C74.7495 28.735 66.2463 21.1781 56.4953 21.1781H56.5Z" fill="url(#paint0_linear)"/>
<path d="M33.5518 88.6768C33.2885 89.0625 33.1043 89.4966 33.0099 89.9539C32.9155 90.4113 32.9128 90.8828 33.0018 91.3412C33.0909 91.7996 33.27 92.2359 33.5288 92.6246C33.7876 93.0133 34.1209 93.3469 34.5095 93.6059C34.898 93.865 35.3341 94.0444 35.7925 94.1337C36.2509 94.2231 36.7224 94.2207 37.1798 94.1266C37.6372 94.0325 38.0715 93.8486 38.4573 93.5855C38.8432 93.3225 39.173 92.9855 39.4278 92.5941L44.1361 85.5316C44.6434 84.7523 44.8228 83.8044 44.6354 82.8937C44.448 81.9829 43.909 81.1828 43.1354 80.6671C42.3617 80.1513 41.4159 79.9615 40.5031 80.1388C39.5904 80.3161 38.7844 80.8463 38.2601 81.6143L33.5518 88.6768Z" fill="url(#paint1_linear)"/>
<path d="M53.364 93.5734C52.5849 93.0539 52.044 92.2461 51.8603 91.3279C51.6767 90.4096 51.8653 89.4559 52.3847 88.6767L57.0931 81.6142C57.3478 81.2228 57.6777 80.8859 58.0635 80.6228C58.4494 80.3598 58.8836 80.1759 59.341 80.0818C59.7984 79.9877 60.27 79.9852 60.7284 80.0746C61.1867 80.164 61.6228 80.3434 62.0114 80.6024C62.3999 80.8615 62.7333 81.195 62.992 81.5837C63.2508 81.9725 63.4299 82.4087 63.519 82.8671C63.6081 83.3255 63.6053 83.7971 63.5109 84.2544C63.4165 84.7118 63.2323 85.1459 62.969 85.5316L58.2607 92.5941C57.7412 93.3732 56.9335 93.9141 56.0152 94.0978C55.0969 94.2814 54.1433 94.0928 53.364 93.5734Z" fill="url(#paint2_linear)"/>
<defs>
<linearGradient id="paint0_linear" x1="56.5" y1="14.125" x2="56.5" y2="80.0787" gradientUnits="userSpaceOnUse">
<stop stop-color="white"/>
<stop offset="1" stop-color="white" stop-opacity="0.6"/>
</linearGradient>
<linearGradient id="paint1_linear" x1="38.8224" y1="80.074" x2="38.8224" y2="94.199" gradientUnits="userSpaceOnUse">
<stop stop-color="white"/>
<stop offset="1" stop-color="white" stop-opacity="0.6"/>
</linearGradient>
<linearGradient id="paint2_linear" x1="57.6878" y1="80.0093" x2="57.6878" y2="94.1664" gradientUnits="userSpaceOnUse">
<stop stop-color="white"/>
<stop offset="1" stop-color="white" stop-opacity="0.6"/>
</linearGradient>
</defs>
</svg>
